<svg xmlns="http://www.w3.org/2000/svg" fill="none" viewBox="0 0 20 20" style="min-width: 100%; height: 100%;"><path fill="#627EEB" d="M10 20c5.523 0 10-4.477 10-10S15.523 0 10 0 0 4.477 0 10s4.477 10 10 10"/><path fill="#BFCDFA" d="m9.88 3.332-.09.299v8.658l.09.088 4.165-2.376z"/><path fill="#FFFFFD" d="m9.88 3.332-4.165 6.67 4.165 2.375z"/><path fill="#BFCDFA" d="m9.881 13.137-.05.06v3.085l.05.143 4.168-5.663z"/><path fill="#FFFFFD" d="M9.88 16.426v-3.29l-4.165-2.374z"/><path fill="#193DBE" d="m9.88 12.378 4.166-2.375L9.88 8.176z"/><path fill="#C5CAF4" d="m5.715 10.003 4.165 2.375V8.176"/></svg>